<svg id="visual" viewBox="0 0 2000 350" width="2000" height="350" xmlns="http://www.w3.org/2000/svg" xmlns:xlink="http://www.w3.org/1999/xlink" version="1.1"><rect x="0" y="0" width="2000" height="350" fill="#131920"></rect><path d="M0 198L25.7 205.2C51.3 212.3 102.7 226.7 154 224.2C205.3 221.7 256.7 202.3 308 196.3C359.3 190.3 410.7 197.7 461.8 198.3C513 199 564 193 615.2 186C666.3 179 717.7 171 769 179.7C820.3 188.3 871.7 213.7 923 220.7C974.3 227.7 1025.7 216.3 1077 215C1128.3 213.7 1179.7 222.3 1231 225.8C1282.3 229.3 1333.7 227.7 1384.8 217.5C1436 207.3 1487 188.7 1538.2 181.2C1589.3 173.7 1640.7 177.3 1692 181.5C1743.3 185.7 1794.7 190.3 1846 196.8C1897.3 203.3 1948.7 211.7 1974.3 215.8L2000 220L2000 351L1974.3 351C1948.7 351 1897.3 351 1846 351C1794.7 351 1743.3 351 1692 351C1640.7 351 1589.3 351 1538.2 351C1487 351 1436 351 1384.8 351C1333.7 351 1282.3 351 1231 351C1179.7 351 1128.3 351 1077 351C1025.7 351 974.3 351 923 351C871.7 351 820.3 351 769 351C717.7 351 666.3 351 615.2 351C564 351 513 351 461.8 351C410.7 351 359.3 351 308 351C256.7 351 205.3 351 154 351C102.7 351 51.3 351 25.7 351L0 351Z" fill="#ffb5a3"></path><path d="M0 198L25.7 198.7C51.3 199.3 102.7 200.7 154 208C205.3 215.3 256.7 228.7 308 232.8C359.3 237 410.7 232 461.8 226.7C513 221.3 564 215.7 615.2 216C666.3 216.3 717.7 222.7 769 224.3C820.3 226 871.7 223 923 215.2C974.3 207.3 1025.7 194.7 1077 194.7C1128.3 194.7 1179.7 207.3 1231 211.5C1282.3 215.7 1333.7 211.3 1384.8 213.2C1436 215 1487 223 1538.2 232.3C1589.3 241.7 1640.7 252.3 1692 245.7C1743.3 239 1794.7 215 1846 206.5C1897.3 198 1948.7 205 1974.3 208.5L2000 212L2000 351L1974.3 351C1948.7 351 1897.3 351 1846 351C1794.7 351 1743.3 351 1692 351C1640.7 351 1589.3 351 1538.2 351C1487 351 1436 351 1384.8 351C1333.7 351 1282.3 351 1231 351C1179.7 351 1128.3 351 1077 351C1025.7 351 974.3 351 923 351C871.7 351 820.3 351 769 351C717.7 351 666.3 351 615.2 351C564 351 513 351 461.8 351C410.7 351 359.3 351 308 351C256.7 351 205.3 351 154 351C102.7 351 51.3 351 25.7 351L0 351Z" fill="#ffa086"></path><path d="M0 271L25.7 265.3C51.3 259.7 102.7 248.3 154 249.7C205.3 251 256.7 265 308 263.8C359.3 262.7 410.7 246.3 461.8 242.8C513 239.3 564 248.7 615.2 256C666.3 263.3 717.7 268.7 769 274.2C820.3 279.7 871.7 285.3 923 281.5C974.3 277.7 1025.7 264.3 1077 261.2C1128.3 258 1179.7 265 1231 263C1282.3 261 1333.7 250 1384.8 254.2C1436 258.3 1487 277.7 1538.2 278.7C1589.3 279.7 1640.7 262.3 1692 251.7C1743.3 241 1794.7 237 1846 240.5C1897.3 244 1948.7 255 1974.3 260.5L2000 266L2000 351L1974.3 351C1948.7 351 1897.3 351 1846 351C1794.7 351 1743.3 351 1692 351C1640.7 351 1589.3 351 1538.2 351C1487 351 1436 351 1384.8 351C1333.7 351 1282.3 351 1231 351C1179.7 351 1128.3 351 1077 351C1025.7 351 974.3 351 923 351C871.7 351 820.3 351 769 351C717.7 351 666.3 351 615.2 351C564 351 513 351 461.8 351C410.7 351 359.3 351 308 351C256.7 351 205.3 351 154 351C102.7 351 51.3 351 25.7 351L0 351Z" fill="#f88a6a"></path><path d="M0 286L25.7 283.7C51.3 281.3 102.7 276.7 154 282.8C205.3 289 256.7 306 308 306.7C359.3 307.3 410.7 291.7 461.8 286.2C513 280.7 564 285.3 615.2 285.7C666.3 286 717.7 282 769 285.5C820.3 289 871.7 300 923 303.2C974.3 306.3 1025.7 301.7 1077 303.7C1128.3 305.7 1179.7 314.3 1231 310.7C1282.3 307 1333.7 291 1384.8 286.8C1436 282.7 1487 290.3 1538.2 298.7C1589.3 307 1640.7 316 1692 318.8C1743.3 321.7 1794.7 318.3 1846 311.5C1897.3 304.7 1948.7 294.3 1974.3 289.2L2000 284L2000 351L1974.3 351C1948.7 351 1897.3 351 1846 351C1794.7 351 1743.3 351 1692 351C1640.7 351 1589.3 351 1538.2 351C1487 351 1436 351 1384.8 351C1333.7 351 1282.3 351 1231 351C1179.7 351 1128.3 351 1077 351C1025.7 351 974.3 351 923 351C871.7 351 820.3 351 769 351C717.7 351 666.3 351 615.2 351C564 351 513 351 461.8 351C410.7 351 359.3 351 308 351C256.7 351 205.3 351 154 351C102.7 351 51.3 351 25.7 351L0 351Z" fill="#ea7351"></path></svg>