<svg id="visual" viewBox="0 0 2000 350" width="2000" height="350" xmlns="http://www.w3.org/2000/svg" xmlns:xlink="http://www.w3.org/1999/xlink" version="1.1"><rect x="0" y="0" width="2000" height="350" fill="#131920"></rect><path d="M0 173L25.7 170C51.3 167 102.7 161 154 155.8C205.3 150.7 256.7 146.3 308 150C359.3 153.7 410.7 165.3 461.8 160.5C513 155.7 564 134.3 615.2 130C666.3 125.7 717.7 138.3 769 143C820.3 147.7 871.7 144.3 923 139.3C974.3 134.3 1025.7 127.7 1077 132.7C1128.3 137.7 1179.7 154.3 1231 167.5C1282.3 180.7 1333.7 190.3 1384.8 189.2C1436 188 1487 176 1538.2 171.2C1589.3 166.3 1640.7 168.7 1692 161.3C1743.3 154 1794.7 137 1846 132.3C1897.3 127.7 1948.7 135.3 1974.3 139.2L2000 143L2000 0L1974.3 0C1948.7 0 1897.3 0 1846 0C1794.7 0 1743.3 0 1692 0C1640.7 0 1589.3 0 1538.2 0C1487 0 1436 0 1384.8 0C1333.7 0 1282.3 0 1231 0C1179.7 0 1128.3 0 1077 0C1025.7 0 974.3 0 923 0C871.7 0 820.3 0 769 0C717.7 0 666.3 0 615.2 0C564 0 513 0 461.8 0C410.7 0 359.3 0 308 0C256.7 0 205.3 0 154 0C102.7 0 51.3 0 25.7 0L0 0Z" fill="#ffb5a3"></path><path d="M0 124L25.7 123.5C51.3 123 102.7 122 154 123.7C205.3 125.3 256.7 129.7 308 130.3C359.3 131 410.7 128 461.8 118.7C513 109.3 564 93.7 615.2 90.2C666.3 86.7 717.7 95.3 769 102C820.3 108.7 871.7 113.3 923 109.7C974.3 106 1025.7 94 1077 95C1128.3 96 1179.7 110 1231 119.5C1282.3 129 1333.7 134 1384.8 131.3C1436 128.7 1487 118.3 1538.2 110.5C1589.3 102.7 1640.7 97.3 1692 98.7C1743.3 100 1794.7 108 1846 107C1897.3 106 1948.7 96 1974.3 91L2000 86L2000 0L1974.3 0C1948.7 0 1897.3 0 1846 0C1794.7 0 1743.3 0 1692 0C1640.7 0 1589.3 0 1538.2 0C1487 0 1436 0 1384.8 0C1333.7 0 1282.3 0 1231 0C1179.7 0 1128.3 0 1077 0C1025.7 0 974.3 0 923 0C871.7 0 820.3 0 769 0C717.7 0 666.3 0 615.2 0C564 0 513 0 461.8 0C410.7 0 359.3 0 308 0C256.7 0 205.3 0 154 0C102.7 0 51.3 0 25.7 0L0 0Z" fill="#ffa086"></path><path d="M0 69L25.7 73C51.3 77 102.7 85 154 93.3C205.3 101.7 256.7 110.3 308 107.3C359.3 104.3 410.7 89.7 461.8 84.3C513 79 564 83 615.2 86.3C666.3 89.7 717.7 92.3 769 90C820.3 87.7 871.7 80.3 923 83.8C974.3 87.3 1025.7 101.7 1077 99.8C1128.3 98 1179.7 80 1231 79.2C1282.3 78.3 1333.7 94.7 1384.8 102.5C1436 110.3 1487 109.7 1538.2 100.7C1589.3 91.7 1640.7 74.3 1692 73.7C1743.3 73 1794.7 89 1846 88.7C1897.3 88.3 1948.7 71.7 1974.3 63.3L2000 55L2000 0L1974.3 0C1948.7 0 1897.3 0 1846 0C1794.7 0 1743.3 0 1692 0C1640.7 0 1589.3 0 1538.2 0C1487 0 1436 0 1384.8 0C1333.7 0 1282.3 0 1231 0C1179.7 0 1128.3 0 1077 0C1025.7 0 974.3 0 923 0C871.7 0 820.3 0 769 0C717.7 0 666.3 0 615.2 0C564 0 513 0 461.8 0C410.7 0 359.3 0 308 0C256.7 0 205.3 0 154 0C102.7 0 51.3 0 25.7 0L0 0Z" fill="#f88a6a"></path><path d="M0 60L25.7 59.3C51.3 58.7 102.7 57.3 154 55.8C205.3 54.3 256.7 52.7 308 55.2C359.3 57.7 410.7 64.3 461.8 60.3C513 56.3 564 41.7 615.2 37.2C666.3 32.7 717.7 38.3 769 41C820.3 43.7 871.7 43.3 923 48.7C974.3 54 1025.7 65 1077 63.2C1128.3 61.3 1179.7 46.7 1231 42.8C1282.3 39 1333.7 46 1384.8 53C1436 60 1487 67 1538.2 69.3C1589.3 71.7 1640.7 69.3 1692 61C1743.3 52.7 1794.7 38.3 1846 35.8C1897.3 33.3 1948.7 42.7 1974.3 47.3L2000 52L2000 0L1974.3 0C1948.7 0 1897.3 0 1846 0C1794.7 0 1743.3 0 1692 0C1640.7 0 1589.3 0 1538.2 0C1487 0 1436 0 1384.8 0C1333.7 0 1282.3 0 1231 0C1179.7 0 1128.3 0 1077 0C1025.7 0 974.3 0 923 0C871.7 0 820.3 0 769 0C717.7 0 666.3 0 615.2 0C564 0 513 0 461.8 0C410.7 0 359.3 0 308 0C256.7 0 205.3 0 154 0C102.7 0 51.3 0 25.7 0L0 0Z" fill="#ea7351"></path></svg>