<svg id="visual" viewBox="0 0 960 540" width="960" height="540" xmlns="http://www.w3.org/2000/svg" xmlns:xlink="http://www.w3.org/1999/xlink" version="1.1"><rect x="0" y="0" width="960" height="540" fill="#131920"></rect><path d="M0 401L31 262L62 142L93 322L124 187L155 282L186 96L217 249L248 390L279 138L310 255L341 155L372 418L403 92L434 194L465 431L495 310L526 54L557 415L588 133L619 480L650 171L681 470L712 446L743 150L774 74L805 53L836 363L867 98L898 392L929 64L960 106" fill="none" stroke-linecap="square" stroke-linejoin="bevel" stroke="#7069d4" stroke-width="99"></path></svg>